<?xml version="1.0" encoding="UTF-8" standalone="no"?>
<!DOCTYPE svg PUBLIC "-//W3C//DTD SVG 1.1//EN"
 "http://www.w3.org/Graphics/SVG/1.1/DTD/svg11.dtd">
<!-- Generated by graphviz version 2.50.0 (20211209.0339)
 -->
<!-- Title: snakemake_dag Pages: 1 -->
<svg width="274pt" height="260pt"
 viewBox="0.00 0.00 273.50 260.00" xmlns="http://www.w3.org/2000/svg" xmlns:xlink="http://www.w3.org/1999/xlink">
<g id="graph0" class="graph" transform="scale(1 1) rotate(0) translate(4 256)">
<title>snakemake_dag</title>
<polygon fill="white" stroke="transparent" points="-4,4 -4,-256 269.5,-256 269.5,4 -4,4"/>
<!-- 0 -->
<g id="node1" class="node">
<title>0</title>
<path fill="none" stroke="#afd856" stroke-width="2" d="M176.5,-36C176.5,-36 85.5,-36 85.5,-36 79.5,-36 73.5,-30 73.5,-24 73.5,-24 73.5,-12 73.5,-12 73.5,-6 79.5,0 85.5,0 85.5,0 176.5,0 176.5,0 182.5,0 188.5,-6 188.5,-12 188.5,-12 188.5,-24 188.5,-24 188.5,-30 182.5,-36 176.5,-36"/>
<text text-anchor="middle" x="131" y="-15.5" font-family="sans" font-size="10.00">qiime2_taxonomic_all</text>
</g>
<!-- 1 -->
<g id="node2" class="node">
<title>1</title>
<path fill="none" stroke="#d85656" stroke-width="2" d="M110.5,-108C110.5,-108 33.5,-108 33.5,-108 27.5,-108 21.5,-102 21.5,-96 21.5,-96 21.5,-84 21.5,-84 21.5,-78 27.5,-72 33.5,-72 33.5,-72 110.5,-72 110.5,-72 116.5,-72 122.5,-78 122.5,-84 122.5,-84 122.5,-96 122.5,-96 122.5,-102 116.5,-108 110.5,-108"/>
<text text-anchor="middle" x="72" y="-93" font-family="sans" font-size="10.00">qiime2_taxonomic</text>
<text text-anchor="middle" x="72" y="-82" font-family="sans" font-size="10.00">denoiser: dada2</text>
</g>
<!-- 1&#45;&gt;0 -->
<g id="edge1" class="edge">
<title>1&#45;&gt;0</title>
<path fill="none" stroke="grey" stroke-width="2" d="M86.58,-71.7C93.66,-63.3 102.28,-53.07 110.05,-43.86"/>
<polygon fill="grey" stroke="grey" stroke-width="2" points="112.81,-46.01 116.58,-36.1 107.46,-41.49 112.81,-46.01"/>
</g>
<!-- 2 -->
<g id="node3" class="node">
<title>2</title>
<path fill="none" stroke="#569ad8" stroke-width="2" d="M110,-180C110,-180 12,-180 12,-180 6,-180 0,-174 0,-168 0,-168 0,-156 0,-156 0,-150 6,-144 12,-144 12,-144 110,-144 110,-144 116,-144 122,-150 122,-156 122,-156 122,-168 122,-168 122,-174 116,-180 110,-180"/>
<text text-anchor="middle" x="61" y="-159.5" font-family="sans" font-size="10.00">qiime2_denoise_dada2</text>
</g>
<!-- 2&#45;&gt;1 -->
<g id="edge3" class="edge">
<title>2&#45;&gt;1</title>
<path fill="none" stroke="grey" stroke-width="2" d="M63.72,-143.7C64.93,-135.98 66.39,-126.71 67.74,-118.11"/>
<polygon fill="grey" stroke="grey" stroke-width="2" points="71.22,-118.53 69.31,-108.1 64.3,-117.44 71.22,-118.53"/>
</g>
<!-- 3 -->
<g id="node4" class="node">
<title>3</title>
<path fill="none" stroke="#56d8a9" stroke-width="2" stroke-dasharray="5,2" d="M162,-252C162,-252 102,-252 102,-252 96,-252 90,-246 90,-240 90,-240 90,-228 90,-228 90,-222 96,-216 102,-216 102,-216 162,-216 162,-216 168,-216 174,-222 174,-228 174,-228 174,-240 174,-240 174,-246 168,-252 162,-252"/>
<text text-anchor="middle" x="132" y="-231.5" font-family="sans" font-size="10.00">qiime2_import</text>
</g>
<!-- 3&#45;&gt;2 -->
<g id="edge4" class="edge">
<title>3&#45;&gt;2</title>
<path fill="none" stroke="grey" stroke-width="2" d="M114.45,-215.7C105.77,-207.14 95.14,-196.66 85.65,-187.3"/>
<polygon fill="grey" stroke="grey" stroke-width="2" points="87.93,-184.63 78.35,-180.1 83.01,-189.62 87.93,-184.63"/>
</g>
<!-- 5 -->
<g id="node6" class="node">
<title>5</title>
<path fill="none" stroke="#56c1d8" stroke-width="2" d="M253.5,-180C253.5,-180 152.5,-180 152.5,-180 146.5,-180 140.5,-174 140.5,-168 140.5,-168 140.5,-156 140.5,-156 140.5,-150 146.5,-144 152.5,-144 152.5,-144 253.5,-144 253.5,-144 259.5,-144 265.5,-150 265.5,-156 265.5,-156 265.5,-168 265.5,-168 265.5,-174 259.5,-180 253.5,-180"/>
<text text-anchor="middle" x="203" y="-159.5" font-family="sans" font-size="10.00">qiime2_denoise_deblur</text>
</g>
<!-- 3&#45;&gt;5 -->
<g id="edge6" class="edge">
<title>3&#45;&gt;5</title>
<path fill="none" stroke="grey" stroke-width="2" d="M149.55,-215.7C158.23,-207.14 168.86,-196.66 178.35,-187.3"/>
<polygon fill="grey" stroke="grey" stroke-width="2" points="180.99,-189.62 185.65,-180.1 176.07,-184.63 180.99,-189.62"/>
</g>
<!-- 4 -->
<g id="node5" class="node">
<title>4</title>
<path fill="none" stroke="#d85656" stroke-width="2" d="M235.5,-108C235.5,-108 158.5,-108 158.5,-108 152.5,-108 146.5,-102 146.5,-96 146.5,-96 146.5,-84 146.5,-84 146.5,-78 152.5,-72 158.5,-72 158.5,-72 235.5,-72 235.5,-72 241.5,-72 247.5,-78 247.5,-84 247.5,-84 247.5,-96 247.5,-96 247.5,-102 241.5,-108 235.5,-108"/>
<text text-anchor="middle" x="197" y="-93" font-family="sans" font-size="10.00">qiime2_taxonomic</text>
<text text-anchor="middle" x="197" y="-82" font-family="sans" font-size="10.00">denoiser: deblur</text>
</g>
<!-- 4&#45;&gt;0 -->
<g id="edge2" class="edge">
<title>4&#45;&gt;0</title>
<path fill="none" stroke="grey" stroke-width="2" d="M180.69,-71.7C172.69,-63.22 162.93,-52.86 154.18,-43.58"/>
<polygon fill="grey" stroke="grey" stroke-width="2" points="156.53,-40.98 147.13,-36.1 151.44,-45.78 156.53,-40.98"/>
</g>
<!-- 5&#45;&gt;4 -->
<g id="edge5" class="edge">
<title>5&#45;&gt;4</title>
<path fill="none" stroke="grey" stroke-width="2" d="M201.52,-143.7C200.86,-135.98 200.06,-126.71 199.32,-118.11"/>
<polygon fill="grey" stroke="grey" stroke-width="2" points="202.81,-117.77 198.47,-108.1 195.83,-118.37 202.81,-117.77"/>
</g>
</g>
</svg>
