<?xml version="1.0" encoding="UTF-8" standalone="no"?>
<!DOCTYPE svg PUBLIC "-//W3C//DTD SVG 1.1//EN"
 "http://www.w3.org/Graphics/SVG/1.1/DTD/svg11.dtd">
<!-- Generated by graphviz version 2.43.0 (0)
 -->
<!-- Title: snakemake_dag Pages: 1 -->
<svg width="2980pt" height="404pt"
 viewBox="0.00 0.00 2980.00 404.00" xmlns="http://www.w3.org/2000/svg" xmlns:xlink="http://www.w3.org/1999/xlink">
<g id="graph0" class="graph" transform="scale(1 1) rotate(0) translate(4 400)">
<title>snakemake_dag</title>
<polygon fill="white" stroke="transparent" points="-4,4 -4,-400 2976,-400 2976,4 -4,4"/>
<!-- 0 -->
<g id="node1" class="node">
<title>0</title>
<path fill="none" stroke="#97d856" stroke-width="2" d="M1561,-36C1561,-36 1531,-36 1531,-36 1525,-36 1519,-30 1519,-24 1519,-24 1519,-12 1519,-12 1519,-6 1525,0 1531,0 1531,0 1561,0 1561,0 1567,0 1573,-6 1573,-12 1573,-12 1573,-24 1573,-24 1573,-30 1567,-36 1561,-36"/>
<text text-anchor="middle" x="1546" y="-15.5" font-family="sans" font-size="10.00">all</text>
</g>
<!-- 1 -->
<g id="node2" class="node">
<title>1</title>
<path fill="none" stroke="#56b9d8" stroke-width="2" d="M162,-396C162,-396 98,-396 98,-396 92,-396 86,-390 86,-384 86,-384 86,-372 86,-372 86,-366 92,-360 98,-360 98,-360 162,-360 162,-360 168,-360 174,-366 174,-372 174,-372 174,-384 174,-384 174,-390 168,-396 162,-396"/>
<text text-anchor="middle" x="130" y="-375.5" font-family="sans" font-size="10.00">qiime2_import</text>
</g>
<!-- 1&#45;&gt;0 -->
<g id="edge1" class="edge">
<title>1&#45;&gt;0</title>
<path fill="none" stroke="grey" stroke-width="2" d="M97.53,-359.94C59.03,-337.09 0,-292.66 0,-235 0,-235 0,-235 0,-161 0,-116.47 8.38,-95.82 46,-72 109.66,-31.68 1283.16,-20.95 1508.69,-19.26"/>
<polygon fill="grey" stroke="grey" stroke-width="2" points="1509.02,-22.76 1519,-19.18 1508.97,-15.76 1509.02,-22.76"/>
</g>
<!-- 2 -->
<g id="node3" class="node">
<title>2</title>
<path fill="none" stroke="#a7d856" stroke-width="2" d="M192,-180C192,-180 68,-180 68,-180 62,-180 56,-174 56,-168 56,-168 56,-156 56,-156 56,-150 62,-144 68,-144 68,-144 192,-144 192,-144 198,-144 204,-150 204,-156 204,-156 204,-168 204,-168 204,-174 198,-180 192,-180"/>
<text text-anchor="middle" x="130" y="-159.5" font-family="sans" font-size="10.00">qiime2_import_summarize</text>
</g>
<!-- 1&#45;&gt;2 -->
<g id="edge28" class="edge">
<title>1&#45;&gt;2</title>
<path fill="none" stroke="grey" stroke-width="2" d="M130,-359.85C130,-322.83 130,-235.18 130,-190.39"/>
<polygon fill="grey" stroke="grey" stroke-width="2" points="133.5,-190.23 130,-180.23 126.5,-190.23 133.5,-190.23"/>
</g>
<!-- 4 -->
<g id="node5" class="node">
<title>4</title>
<path fill="none" stroke="#d87d56" stroke-width="2" d="M1778.5,-324C1778.5,-324 1673.5,-324 1673.5,-324 1667.5,-324 1661.5,-318 1661.5,-312 1661.5,-312 1661.5,-300 1661.5,-300 1661.5,-294 1667.5,-288 1673.5,-288 1673.5,-288 1778.5,-288 1778.5,-288 1784.5,-288 1790.5,-294 1790.5,-300 1790.5,-300 1790.5,-312 1790.5,-312 1790.5,-318 1784.5,-324 1778.5,-324"/>
<text text-anchor="middle" x="1726" y="-303.5" font-family="sans" font-size="10.00">qiime2_denoise_dada2</text>
</g>
<!-- 1&#45;&gt;4 -->
<g id="edge30" class="edge">
<title>1&#45;&gt;4</title>
<path fill="none" stroke="grey" stroke-width="2" d="M174.35,-375.05C394.66,-365.39 1371.81,-322.53 1651.17,-310.28"/>
<polygon fill="grey" stroke="grey" stroke-width="2" points="1651.37,-313.78 1661.21,-309.84 1651.06,-306.78 1651.37,-313.78"/>
</g>
<!-- 2&#45;&gt;0 -->
<g id="edge2" class="edge">
<title>2&#45;&gt;0</title>
<path fill="none" stroke="grey" stroke-width="2" d="M92.61,-143.8C78.46,-135.2 63.87,-123.32 56,-108 48.69,-93.77 44.89,-83.51 56,-72 107.98,-18.14 1282.75,-18.34 1508.62,-18.88"/>
<polygon fill="grey" stroke="grey" stroke-width="2" points="1508.94,-22.38 1518.95,-18.91 1508.96,-15.38 1508.94,-22.38"/>
</g>
<!-- 3 -->
<g id="node4" class="node">
<title>3</title>
<path fill="none" stroke="#70d856" stroke-width="2" d="M238.5,-108C238.5,-108 77.5,-108 77.5,-108 71.5,-108 65.5,-102 65.5,-96 65.5,-96 65.5,-84 65.5,-84 65.5,-78 71.5,-72 77.5,-72 77.5,-72 238.5,-72 238.5,-72 244.5,-72 250.5,-78 250.5,-84 250.5,-84 250.5,-96 250.5,-96 250.5,-102 244.5,-108 238.5,-108"/>
<text text-anchor="middle" x="158" y="-87.5" font-family="sans" font-size="10.00">qiime2_import_summarize_export</text>
</g>
<!-- 2&#45;&gt;3 -->
<g id="edge29" class="edge">
<title>2&#45;&gt;3</title>
<path fill="none" stroke="grey" stroke-width="2" d="M136.92,-143.7C140.07,-135.81 143.88,-126.3 147.38,-117.55"/>
<polygon fill="grey" stroke="grey" stroke-width="2" points="150.69,-118.69 151.16,-108.1 144.19,-116.09 150.69,-118.69"/>
</g>
<!-- 3&#45;&gt;0 -->
<g id="edge3" class="edge">
<title>3&#45;&gt;0</title>
<path fill="none" stroke="grey" stroke-width="2" d="M250.7,-73.49C255.19,-72.94 259.64,-72.44 264,-72 754.26,-22.73 1354.39,-19.03 1508.53,-18.94"/>
<polygon fill="grey" stroke="grey" stroke-width="2" points="1508.85,-22.44 1518.85,-18.94 1508.85,-15.44 1508.85,-22.44"/>
</g>
<!-- 4&#45;&gt;0 -->
<g id="edge4" class="edge">
<title>4&#45;&gt;0</title>
<path fill="none" stroke="grey" stroke-width="2" d="M1790.66,-304.21C1853.07,-301.04 1948.62,-289.68 2022,-252 2096.89,-213.54 2143.62,-128.27 2081,-72 2044.06,-38.8 1698.68,-24.17 1583.32,-20.18"/>
<polygon fill="grey" stroke="grey" stroke-width="2" points="1583.32,-16.68 1573.2,-19.84 1583.08,-23.67 1583.32,-16.68"/>
</g>
<!-- 5 -->
<g id="node6" class="node">
<title>5</title>
<path fill="none" stroke="#56d89a" stroke-width="2" d="M2318,-252C2318,-252 2176,-252 2176,-252 2170,-252 2164,-246 2164,-240 2164,-240 2164,-228 2164,-228 2164,-222 2170,-216 2176,-216 2176,-216 2318,-216 2318,-216 2324,-216 2330,-222 2330,-228 2330,-228 2330,-240 2330,-240 2330,-246 2324,-252 2318,-252"/>
<text text-anchor="middle" x="2247" y="-231.5" font-family="sans" font-size="10.00">qiime2_denoise_dada2_export</text>
</g>
<!-- 4&#45;&gt;5 -->
<g id="edge31" class="edge">
<title>4&#45;&gt;5</title>
<path fill="none" stroke="grey" stroke-width="2" d="M1790.79,-297.9C1874.07,-288.55 2023.08,-271.04 2150,-252 2151.28,-251.81 2152.58,-251.61 2153.88,-251.41"/>
<polygon fill="grey" stroke="grey" stroke-width="2" points="2154.63,-254.84 2163.97,-249.83 2153.55,-247.92 2154.63,-254.84"/>
</g>
<!-- 6 -->
<g id="node7" class="node">
<title>6</title>
<path fill="none" stroke="#d89c56" stroke-width="2" d="M2585.5,-180C2585.5,-180 2412.5,-180 2412.5,-180 2406.5,-180 2400.5,-174 2400.5,-168 2400.5,-168 2400.5,-156 2400.5,-156 2400.5,-150 2406.5,-144 2412.5,-144 2412.5,-144 2585.5,-144 2585.5,-144 2591.5,-144 2597.5,-150 2597.5,-156 2597.5,-156 2597.5,-168 2597.5,-168 2597.5,-174 2591.5,-180 2585.5,-180"/>
<text text-anchor="middle" x="2499" y="-159.5" font-family="sans" font-size="10.00">qiime2_denoise_dada2_visualization</text>
</g>
<!-- 4&#45;&gt;6 -->
<g id="edge32" class="edge">
<title>4&#45;&gt;6</title>
<path fill="none" stroke="grey" stroke-width="2" d="M1790.57,-302.84C1926.48,-297.73 2237.88,-282.94 2339,-252 2386.93,-237.34 2436.51,-206.97 2467.53,-185.81"/>
<polygon fill="grey" stroke="grey" stroke-width="2" points="2469.54,-188.68 2475.77,-180.11 2465.56,-182.92 2469.54,-188.68"/>
</g>
<!-- 8 -->
<g id="node9" class="node">
<title>8</title>
<path fill="none" stroke="#56d8b9" stroke-width="2" d="M2864.5,-180C2864.5,-180 2707.5,-180 2707.5,-180 2701.5,-180 2695.5,-174 2695.5,-168 2695.5,-168 2695.5,-156 2695.5,-156 2695.5,-150 2701.5,-144 2707.5,-144 2707.5,-144 2864.5,-144 2864.5,-144 2870.5,-144 2876.5,-150 2876.5,-156 2876.5,-156 2876.5,-168 2876.5,-168 2876.5,-174 2870.5,-180 2864.5,-180"/>
<text text-anchor="middle" x="2786" y="-165" font-family="sans" font-size="10.00">qiime2_feature_table_summarize</text>
<text text-anchor="middle" x="2786" y="-154" font-family="sans" font-size="10.00">denoiser: dada2</text>
</g>
<!-- 4&#45;&gt;8 -->
<g id="edge34" class="edge">
<title>4&#45;&gt;8</title>
<path fill="none" stroke="grey" stroke-width="2" d="M1790.64,-302.92C1910.04,-298.4 2172.97,-285.28 2392,-252 2505.53,-234.75 2635.02,-203.16 2713.61,-182.62"/>
<polygon fill="grey" stroke="grey" stroke-width="2" points="2714.62,-185.98 2723.41,-180.05 2712.85,-179.2 2714.62,-185.98"/>
</g>
<!-- 9 -->
<g id="node10" class="node">
<title>9</title>
<path fill="none" stroke="#568ad8" stroke-width="2" d="M479.5,-180C479.5,-180 336.5,-180 336.5,-180 330.5,-180 324.5,-174 324.5,-168 324.5,-168 324.5,-156 324.5,-156 324.5,-150 330.5,-144 336.5,-144 336.5,-144 479.5,-144 479.5,-144 485.5,-144 491.5,-150 491.5,-156 491.5,-156 491.5,-168 491.5,-168 491.5,-174 485.5,-180 479.5,-180"/>
<text text-anchor="middle" x="408" y="-165" font-family="sans" font-size="10.00">qiime2_feature_table_tabulate</text>
<text text-anchor="middle" x="408" y="-154" font-family="sans" font-size="10.00">denoiser: dada2</text>
</g>
<!-- 4&#45;&gt;9 -->
<g id="edge35" class="edge">
<title>4&#45;&gt;9</title>
<path fill="none" stroke="grey" stroke-width="2" d="M1661.17,-300.49C1547,-292.34 1302.68,-273.94 1097,-252 883.68,-229.25 634.18,-195.15 501.76,-176.45"/>
<polygon fill="grey" stroke="grey" stroke-width="2" points="502.04,-172.96 491.65,-175.02 501.06,-179.89 502.04,-172.96"/>
</g>
<!-- 12 -->
<g id="node13" class="node">
<title>12</title>
<path fill="none" stroke="#8fd856" stroke-width="2" d="M1270,-252C1270,-252 1118,-252 1118,-252 1112,-252 1106,-246 1106,-240 1106,-240 1106,-228 1106,-228 1106,-222 1112,-216 1118,-216 1118,-216 1270,-216 1270,-216 1276,-216 1282,-222 1282,-228 1282,-228 1282,-240 1282,-240 1282,-246 1276,-252 1270,-252"/>
<text text-anchor="middle" x="1194" y="-237" font-family="sans" font-size="10.00">qiime2_taxonomic_classification</text>
<text text-anchor="middle" x="1194" y="-226" font-family="sans" font-size="10.00">denoiser: dada2</text>
</g>
<!-- 4&#45;&gt;12 -->
<g id="edge38" class="edge">
<title>4&#45;&gt;12</title>
<path fill="none" stroke="grey" stroke-width="2" d="M1661.3,-296.49C1569.29,-284.38 1399.88,-262.09 1292.3,-247.93"/>
<polygon fill="grey" stroke="grey" stroke-width="2" points="1292.45,-244.42 1282.08,-246.59 1291.54,-251.36 1292.45,-244.42"/>
</g>
<!-- 16 -->
<g id="node17" class="node">
<title>16</title>
<path fill="none" stroke="#56d8c1" stroke-width="2" d="M1255,-180C1255,-180 1133,-180 1133,-180 1127,-180 1121,-174 1121,-168 1121,-168 1121,-156 1121,-156 1121,-150 1127,-144 1133,-144 1133,-144 1255,-144 1255,-144 1261,-144 1267,-150 1267,-156 1267,-156 1267,-168 1267,-168 1267,-174 1261,-180 1255,-180"/>
<text text-anchor="middle" x="1194" y="-159.5" font-family="sans" font-size="10.00">qiime2_taxonomic_barplot</text>
</g>
<!-- 4&#45;&gt;16 -->
<g id="edge42" class="edge">
<title>4&#45;&gt;16</title>
<path fill="none" stroke="grey" stroke-width="2" d="M1661.1,-289.02C1619.55,-278.69 1564.53,-264.83 1516,-252 1428.93,-228.98 1329.02,-201.14 1263.88,-182.8"/>
<polygon fill="grey" stroke="grey" stroke-width="2" points="1264.7,-179.4 1254.13,-180.05 1262.8,-186.13 1264.7,-179.4"/>
</g>
<!-- 18 -->
<g id="node19" class="node">
<title>18</title>
<path fill="none" stroke="#56a9d8" stroke-width="2" d="M1450,-180C1450,-180 1334,-180 1334,-180 1328,-180 1322,-174 1322,-168 1322,-168 1322,-156 1322,-156 1322,-150 1328,-144 1334,-144 1334,-144 1450,-144 1450,-144 1456,-144 1462,-150 1462,-156 1462,-156 1462,-168 1462,-168 1462,-174 1456,-180 1450,-180"/>
<text text-anchor="middle" x="1392" y="-159.5" font-family="sans" font-size="10.00">qiime2_taxonomic_krona</text>
</g>
<!-- 4&#45;&gt;18 -->
<g id="edge45" class="edge">
<title>4&#45;&gt;18</title>
<path fill="none" stroke="grey" stroke-width="2" d="M1685.71,-287.87C1624.44,-261.82 1507.97,-212.3 1441.59,-184.08"/>
<polygon fill="grey" stroke="grey" stroke-width="2" points="1442.74,-180.77 1432.17,-180.08 1440,-187.21 1442.74,-180.77"/>
</g>
<!-- 20 -->
<g id="node21" class="node">
<title>20</title>
<path fill="none" stroke="#ced856" stroke-width="2" d="M1871.5,-180C1871.5,-180 1764.5,-180 1764.5,-180 1758.5,-180 1752.5,-174 1752.5,-168 1752.5,-168 1752.5,-156 1752.5,-156 1752.5,-150 1758.5,-144 1764.5,-144 1764.5,-144 1871.5,-144 1871.5,-144 1877.5,-144 1883.5,-150 1883.5,-156 1883.5,-156 1883.5,-168 1883.5,-168 1883.5,-174 1877.5,-180 1871.5,-180"/>
<text text-anchor="middle" x="1818" y="-165" font-family="sans" font-size="10.00">qiime2_phylotree_sepp</text>
<text text-anchor="middle" x="1818" y="-154" font-family="sans" font-size="10.00">denoiser: dada2</text>
</g>
<!-- 4&#45;&gt;20 -->
<g id="edge48" class="edge">
<title>4&#45;&gt;20</title>
<path fill="none" stroke="grey" stroke-width="2" d="M1737.1,-287.87C1753.05,-263.24 1782.6,-217.64 1801.23,-188.88"/>
<polygon fill="grey" stroke="grey" stroke-width="2" points="1804.36,-190.48 1806.86,-180.19 1798.49,-186.68 1804.36,-190.48"/>
</g>
<!-- 22 -->
<g id="node23" class="node">
<title>22</title>
<path fill="none" stroke="#56d0d8" stroke-width="2" d="M2001.5,-252C2001.5,-252 1894.5,-252 1894.5,-252 1888.5,-252 1882.5,-246 1882.5,-240 1882.5,-240 1882.5,-228 1882.5,-228 1882.5,-222 1888.5,-216 1894.5,-216 1894.5,-216 2001.5,-216 2001.5,-216 2007.5,-216 2013.5,-222 2013.5,-228 2013.5,-228 2013.5,-240 2013.5,-240 2013.5,-246 2007.5,-252 2001.5,-252"/>
<text text-anchor="middle" x="1948" y="-237" font-family="sans" font-size="10.00">qiime2_phylotree_align</text>
<text text-anchor="middle" x="1948" y="-226" font-family="sans" font-size="10.00">denoiser: dada2</text>
</g>
<!-- 4&#45;&gt;22 -->
<g id="edge50" class="edge">
<title>4&#45;&gt;22</title>
<path fill="none" stroke="grey" stroke-width="2" d="M1780.02,-287.97C1811.45,-278.06 1851.23,-265.51 1884.19,-255.12"/>
<polygon fill="grey" stroke="grey" stroke-width="2" points="1885.25,-258.46 1893.73,-252.11 1883.14,-251.78 1885.25,-258.46"/>
</g>
<!-- 24 -->
<g id="node25" class="node">
<title>24</title>
<path fill="none" stroke="#56d873" stroke-width="2" d="M1722.5,-180C1722.5,-180 1547.5,-180 1547.5,-180 1541.5,-180 1535.5,-174 1535.5,-168 1535.5,-168 1535.5,-156 1535.5,-156 1535.5,-150 1541.5,-144 1547.5,-144 1547.5,-144 1722.5,-144 1722.5,-144 1728.5,-144 1734.5,-150 1734.5,-156 1734.5,-156 1734.5,-168 1734.5,-168 1734.5,-174 1728.5,-180 1722.5,-180"/>
<text text-anchor="middle" x="1635" y="-159.5" font-family="sans" font-size="10.00">qiime2_phylotree_align_visualization</text>
</g>
<!-- 4&#45;&gt;24 -->
<g id="edge52" class="edge">
<title>4&#45;&gt;24</title>
<path fill="none" stroke="grey" stroke-width="2" d="M1715.02,-287.87C1699.24,-263.24 1670.01,-217.64 1651.59,-188.88"/>
<polygon fill="grey" stroke="grey" stroke-width="2" points="1654.36,-186.72 1646.02,-180.19 1648.46,-190.5 1654.36,-186.72"/>
</g>
<!-- 5&#45;&gt;0 -->
<g id="edge5" class="edge">
<title>5&#45;&gt;0</title>
<path fill="none" stroke="grey" stroke-width="2" d="M2242.38,-215.93C2232.15,-181.86 2204.12,-105.78 2150,-72 2101.95,-42.01 1707.77,-24.98 1583.43,-20.32"/>
<polygon fill="grey" stroke="grey" stroke-width="2" points="1583.38,-16.82 1573.26,-19.95 1583.12,-23.81 1583.38,-16.82"/>
</g>
<!-- 26 -->
<g id="node27" class="node">
<title>26</title>
<path fill="none" stroke="#d88d56" stroke-width="2" d="M2370,-180C2370,-180 2254,-180 2254,-180 2248,-180 2242,-174 2242,-168 2242,-168 2242,-156 2242,-156 2242,-150 2248,-144 2254,-144 2254,-144 2370,-144 2370,-144 2376,-144 2382,-150 2382,-156 2382,-156 2382,-168 2382,-168 2382,-174 2376,-180 2370,-180"/>
<text text-anchor="middle" x="2312" y="-165" font-family="sans" font-size="10.00">qiime2_function_picrust2</text>
<text text-anchor="middle" x="2312" y="-154" font-family="sans" font-size="10.00">denoiser: dada2</text>
</g>
<!-- 5&#45;&gt;26 -->
<g id="edge56" class="edge">
<title>5&#45;&gt;26</title>
<path fill="none" stroke="grey" stroke-width="2" d="M2263.07,-215.7C2270.94,-207.22 2280.56,-196.86 2289.17,-187.58"/>
<polygon fill="grey" stroke="grey" stroke-width="2" points="2291.88,-189.81 2296.12,-180.1 2286.75,-185.05 2291.88,-189.81"/>
</g>
<!-- 6&#45;&gt;0 -->
<g id="edge6" class="edge">
<title>6&#45;&gt;0</title>
<path fill="none" stroke="grey" stroke-width="2" d="M2496.07,-143.84C2491.51,-122.94 2480.53,-88.41 2456,-72 2382.62,-22.93 1745.88,-19.13 1583.54,-18.97"/>
<polygon fill="grey" stroke="grey" stroke-width="2" points="1583.12,-15.47 1573.11,-18.96 1583.11,-22.47 1583.12,-15.47"/>
</g>
<!-- 7 -->
<g id="node8" class="node">
<title>7</title>
<path fill="none" stroke="#5673d8" stroke-width="2" d="M2745.5,-108C2745.5,-108 2536.5,-108 2536.5,-108 2530.5,-108 2524.5,-102 2524.5,-96 2524.5,-96 2524.5,-84 2524.5,-84 2524.5,-78 2530.5,-72 2536.5,-72 2536.5,-72 2745.5,-72 2745.5,-72 2751.5,-72 2757.5,-78 2757.5,-84 2757.5,-84 2757.5,-96 2757.5,-96 2757.5,-102 2751.5,-108 2745.5,-108"/>
<text text-anchor="middle" x="2641" y="-87.5" font-family="sans" font-size="10.00">qiime2_denoise_dada2_visualization_export</text>
</g>
<!-- 6&#45;&gt;7 -->
<g id="edge33" class="edge">
<title>6&#45;&gt;7</title>
<path fill="none" stroke="grey" stroke-width="2" d="M2533.74,-143.88C2552.82,-134.47 2576.68,-122.71 2597.05,-112.67"/>
<polygon fill="grey" stroke="grey" stroke-width="2" points="2598.71,-115.75 2606.13,-108.19 2595.61,-109.47 2598.71,-115.75"/>
</g>
<!-- 7&#45;&gt;0 -->
<g id="edge7" class="edge">
<title>7&#45;&gt;0</title>
<path fill="none" stroke="grey" stroke-width="2" d="M2524.27,-73.41C2519.45,-72.9 2514.68,-72.43 2510,-72 2150.01,-38.79 1712.33,-23.92 1583.41,-20.06"/>
<polygon fill="grey" stroke="grey" stroke-width="2" points="1583.37,-16.56 1573.27,-19.76 1583.17,-23.55 1583.37,-16.56"/>
</g>
<!-- 8&#45;&gt;0 -->
<g id="edge8" class="edge">
<title>8&#45;&gt;0</title>
<path fill="none" stroke="grey" stroke-width="2" d="M2787.72,-143.83C2788.72,-123.25 2786.77,-89.38 2766,-72 2719.54,-33.14 1783.68,-21.42 1583.48,-19.36"/>
<polygon fill="grey" stroke="grey" stroke-width="2" points="1583.23,-15.85 1573.19,-19.25 1583.15,-22.85 1583.23,-15.85"/>
</g>
<!-- 10 -->
<g id="node11" class="node">
<title>10</title>
<path fill="none" stroke="#d8d356" stroke-width="2" d="M2960,-108C2960,-108 2826,-108 2826,-108 2820,-108 2814,-102 2814,-96 2814,-96 2814,-84 2814,-84 2814,-78 2820,-72 2826,-72 2826,-72 2960,-72 2960,-72 2966,-72 2972,-78 2972,-84 2972,-84 2972,-96 2972,-96 2972,-102 2966,-108 2960,-108"/>
<text text-anchor="middle" x="2893" y="-87.5" font-family="sans" font-size="10.00">qiime2_feature_table_export</text>
</g>
<!-- 8&#45;&gt;10 -->
<g id="edge36" class="edge">
<title>8&#45;&gt;10</title>
<path fill="none" stroke="grey" stroke-width="2" d="M2812.18,-143.88C2826.04,-134.81 2843.24,-123.55 2858.21,-113.76"/>
<polygon fill="grey" stroke="grey" stroke-width="2" points="2860.27,-116.59 2866.72,-108.19 2856.44,-110.74 2860.27,-116.59"/>
</g>
<!-- 9&#45;&gt;0 -->
<g id="edge9" class="edge">
<title>9&#45;&gt;0</title>
<path fill="none" stroke="grey" stroke-width="2" d="M342.32,-143.95C324.58,-136.01 307.42,-124.53 297,-108 288.46,-94.47 285.93,-83.55 297,-72 339.99,-27.14 1305.73,-20.13 1508.76,-19.15"/>
<polygon fill="grey" stroke="grey" stroke-width="2" points="1508.93,-22.65 1518.91,-19.1 1508.9,-15.65 1508.93,-22.65"/>
</g>
<!-- 11 -->
<g id="node12" class="node">
<title>11</title>
<path fill="none" stroke="#59d856" stroke-width="2" d="M497.5,-108C497.5,-108 318.5,-108 318.5,-108 312.5,-108 306.5,-102 306.5,-96 306.5,-96 306.5,-84 306.5,-84 306.5,-78 312.5,-72 318.5,-72 318.5,-72 497.5,-72 497.5,-72 503.5,-72 509.5,-78 509.5,-84 509.5,-84 509.5,-96 509.5,-96 509.5,-102 503.5,-108 497.5,-108"/>
<text text-anchor="middle" x="408" y="-87.5" font-family="sans" font-size="10.00">qiime2_feature_table_tabulate_export</text>
</g>
<!-- 9&#45;&gt;11 -->
<g id="edge37" class="edge">
<title>9&#45;&gt;11</title>
<path fill="none" stroke="grey" stroke-width="2" d="M408,-143.7C408,-135.98 408,-126.71 408,-118.11"/>
<polygon fill="grey" stroke="grey" stroke-width="2" points="411.5,-118.1 408,-108.1 404.5,-118.1 411.5,-118.1"/>
</g>
<!-- 10&#45;&gt;0 -->
<g id="edge10" class="edge">
<title>10&#45;&gt;0</title>
<path fill="none" stroke="grey" stroke-width="2" d="M2813.96,-73.78C2809.25,-73.11 2804.57,-72.51 2800,-72 2321.54,-18.42 1734.87,-17.85 1583.18,-18.7"/>
<polygon fill="grey" stroke="grey" stroke-width="2" points="1583,-15.2 1573.02,-18.76 1583.04,-22.2 1583,-15.2"/>
</g>
<!-- 11&#45;&gt;0 -->
<g id="edge11" class="edge">
<title>11&#45;&gt;0</title>
<path fill="none" stroke="grey" stroke-width="2" d="M509.78,-73.53C514.58,-72.98 519.34,-72.46 524,-72 907.45,-34.04 1374.7,-22.36 1508.55,-19.68"/>
<polygon fill="grey" stroke="grey" stroke-width="2" points="1508.76,-23.17 1518.69,-19.48 1508.62,-16.17 1508.76,-23.17"/>
</g>
<!-- 12&#45;&gt;0 -->
<g id="edge12" class="edge">
<title>12&#45;&gt;0</title>
<path fill="none" stroke="grey" stroke-width="2" d="M1105.93,-224.77C970.77,-208.96 736.63,-167.11 825,-72 871.84,-21.59 1367.47,-18.65 1508.66,-18.85"/>
<polygon fill="grey" stroke="grey" stroke-width="2" points="1508.95,-22.35 1518.96,-18.87 1508.96,-15.35 1508.95,-22.35"/>
</g>
<!-- 13 -->
<g id="node14" class="node">
<title>13</title>
<path fill="none" stroke="#56d88a" stroke-width="2" d="M1034,-108C1034,-108 846,-108 846,-108 840,-108 834,-102 834,-96 834,-96 834,-84 834,-84 834,-78 840,-72 846,-72 846,-72 1034,-72 1034,-72 1040,-72 1046,-78 1046,-84 1046,-84 1046,-96 1046,-96 1046,-102 1040,-108 1034,-108"/>
<text text-anchor="middle" x="940" y="-87.5" font-family="sans" font-size="10.00">qiime2_taxonomic_classification_export</text>
</g>
<!-- 12&#45;&gt;13 -->
<g id="edge39" class="edge">
<title>12&#45;&gt;13</title>
<path fill="none" stroke="grey" stroke-width="2" d="M1163.36,-215.87C1117.31,-190.12 1030.24,-141.45 979.48,-113.07"/>
<polygon fill="grey" stroke="grey" stroke-width="2" points="981.18,-110.01 970.75,-108.19 977.77,-116.12 981.18,-110.01"/>
</g>
<!-- 14 -->
<g id="node15" class="node">
<title>14</title>
<path fill="none" stroke="#56d882" stroke-width="2" d="M747,-180C747,-180 597,-180 597,-180 591,-180 585,-174 585,-168 585,-168 585,-156 585,-156 585,-150 591,-144 597,-144 597,-144 747,-144 747,-144 753,-144 759,-150 759,-156 759,-156 759,-168 759,-168 759,-174 753,-180 747,-180"/>
<text text-anchor="middle" x="672" y="-159.5" font-family="sans" font-size="10.00">qiime2_taxonomic_visualization</text>
</g>
<!-- 12&#45;&gt;14 -->
<g id="edge40" class="edge">
<title>12&#45;&gt;14</title>
<path fill="none" stroke="grey" stroke-width="2" d="M1105.74,-221.61C1024.27,-211.04 899.93,-194.76 792,-180 784.61,-178.99 776.96,-177.93 769.27,-176.86"/>
<polygon fill="grey" stroke="grey" stroke-width="2" points="769.54,-173.37 759.16,-175.45 768.58,-180.3 769.54,-173.37"/>
</g>
<!-- 12&#45;&gt;16 -->
<g id="edge43" class="edge">
<title>12&#45;&gt;16</title>
<path fill="none" stroke="grey" stroke-width="2" d="M1194,-215.7C1194,-207.98 1194,-198.71 1194,-190.11"/>
<polygon fill="grey" stroke="grey" stroke-width="2" points="1197.5,-190.1 1194,-180.1 1190.5,-190.1 1197.5,-190.1"/>
</g>
<!-- 12&#45;&gt;18 -->
<g id="edge46" class="edge">
<title>12&#45;&gt;18</title>
<path fill="none" stroke="grey" stroke-width="2" d="M1242.18,-215.97C1269.85,-206.19 1304.78,-193.84 1333.95,-183.52"/>
<polygon fill="grey" stroke="grey" stroke-width="2" points="1335.34,-186.74 1343.6,-180.11 1333.01,-180.14 1335.34,-186.74"/>
</g>
<!-- 12&#45;&gt;24 -->
<g id="edge53" class="edge">
<title>12&#45;&gt;24</title>
<path fill="none" stroke="grey" stroke-width="2" d="M1282.18,-219C1352.19,-207.89 1450.42,-192.3 1525.46,-180.39"/>
<polygon fill="grey" stroke="grey" stroke-width="2" points="1526.1,-183.83 1535.43,-178.81 1525,-176.92 1526.1,-183.83"/>
</g>
<!-- 13&#45;&gt;0 -->
<g id="edge13" class="edge">
<title>13&#45;&gt;0</title>
<path fill="none" stroke="grey" stroke-width="2" d="M1046.3,-73.76C1050.93,-73.15 1055.51,-72.56 1060,-72 1227.04,-51.07 1426.98,-30.76 1508.57,-22.67"/>
<polygon fill="grey" stroke="grey" stroke-width="2" points="1509.22,-26.12 1518.83,-21.65 1508.53,-19.15 1509.22,-26.12"/>
</g>
<!-- 14&#45;&gt;0 -->
<g id="edge14" class="edge">
<title>14&#45;&gt;0</title>
<path fill="none" stroke="grey" stroke-width="2" d="M602.8,-143.93C584.86,-136.03 567.61,-124.57 557,-108 548.37,-94.53 545.99,-83.61 557,-72 590.34,-36.82 1332.44,-22.49 1508.69,-19.58"/>
<polygon fill="grey" stroke="grey" stroke-width="2" points="1508.83,-23.08 1518.77,-19.41 1508.72,-16.08 1508.83,-23.08"/>
</g>
<!-- 15 -->
<g id="node16" class="node">
<title>15</title>
<path fill="none" stroke="#b6d856" stroke-width="2" d="M765.5,-108C765.5,-108 578.5,-108 578.5,-108 572.5,-108 566.5,-102 566.5,-96 566.5,-96 566.5,-84 566.5,-84 566.5,-78 572.5,-72 578.5,-72 578.5,-72 765.5,-72 765.5,-72 771.5,-72 777.5,-78 777.5,-84 777.5,-84 777.5,-96 777.5,-96 777.5,-102 771.5,-108 765.5,-108"/>
<text text-anchor="middle" x="672" y="-87.5" font-family="sans" font-size="10.00">qiime2_taxonomic_visualization_export</text>
</g>
<!-- 14&#45;&gt;15 -->
<g id="edge41" class="edge">
<title>14&#45;&gt;15</title>
<path fill="none" stroke="grey" stroke-width="2" d="M672,-143.7C672,-135.98 672,-126.71 672,-118.11"/>
<polygon fill="grey" stroke="grey" stroke-width="2" points="675.5,-118.1 672,-108.1 668.5,-118.1 675.5,-118.1"/>
</g>
<!-- 15&#45;&gt;0 -->
<g id="edge15" class="edge">
<title>15&#45;&gt;0</title>
<path fill="none" stroke="grey" stroke-width="2" d="M777.63,-73.61C782.48,-73.04 787.29,-72.5 792,-72 1066.37,-42.96 1398.65,-25.87 1508.65,-20.69"/>
<polygon fill="grey" stroke="grey" stroke-width="2" points="1509.06,-24.18 1518.89,-20.21 1508.74,-17.18 1509.06,-24.18"/>
</g>
<!-- 16&#45;&gt;0 -->
<g id="edge16" class="edge">
<title>16&#45;&gt;0</title>
<path fill="none" stroke="grey" stroke-width="2" d="M1136.75,-143.96C1119.67,-135.91 1102.89,-124.35 1093,-108 1084.72,-94.31 1082.36,-83.95 1093,-72 1120.51,-41.08 1405.22,-25.31 1508.68,-20.57"/>
<polygon fill="grey" stroke="grey" stroke-width="2" points="1508.85,-24.07 1518.68,-20.12 1508.54,-17.08 1508.85,-24.07"/>
</g>
<!-- 17 -->
<g id="node18" class="node">
<title>17</title>
<path fill="none" stroke="#80d856" stroke-width="2" d="M1273.5,-108C1273.5,-108 1114.5,-108 1114.5,-108 1108.5,-108 1102.5,-102 1102.5,-96 1102.5,-96 1102.5,-84 1102.5,-84 1102.5,-78 1108.5,-72 1114.5,-72 1114.5,-72 1273.5,-72 1273.5,-72 1279.5,-72 1285.5,-78 1285.5,-84 1285.5,-84 1285.5,-96 1285.5,-96 1285.5,-102 1279.5,-108 1273.5,-108"/>
<text text-anchor="middle" x="1194" y="-87.5" font-family="sans" font-size="10.00">qiime2_taxonomic_barplot_export</text>
</g>
<!-- 16&#45;&gt;17 -->
<g id="edge44" class="edge">
<title>16&#45;&gt;17</title>
<path fill="none" stroke="grey" stroke-width="2" d="M1194,-143.7C1194,-135.98 1194,-126.71 1194,-118.11"/>
<polygon fill="grey" stroke="grey" stroke-width="2" points="1197.5,-118.1 1194,-108.1 1190.5,-118.1 1197.5,-118.1"/>
</g>
<!-- 17&#45;&gt;0 -->
<g id="edge17" class="edge">
<title>17&#45;&gt;0</title>
<path fill="none" stroke="grey" stroke-width="2" d="M1279.66,-71.97C1352.88,-57.4 1454.73,-37.15 1508.8,-26.4"/>
<polygon fill="grey" stroke="grey" stroke-width="2" points="1509.52,-29.82 1518.64,-24.44 1508.15,-22.96 1509.52,-29.82"/>
</g>
<!-- 18&#45;&gt;0 -->
<g id="edge18" class="edge">
<title>18&#45;&gt;0</title>
<path fill="none" stroke="grey" stroke-width="2" d="M1364.2,-143.87C1352.23,-134.84 1339.5,-122.59 1333,-108 1326.48,-93.39 1323.15,-84.61 1333,-72 1354.44,-44.57 1453.79,-29.3 1508.91,-22.8"/>
<polygon fill="grey" stroke="grey" stroke-width="2" points="1509.44,-26.26 1518.98,-21.65 1508.65,-19.31 1509.44,-26.26"/>
</g>
<!-- 19 -->
<g id="node20" class="node">
<title>19</title>
<path fill="none" stroke="#56d8d0" stroke-width="2" d="M1506,-108C1506,-108 1354,-108 1354,-108 1348,-108 1342,-102 1342,-96 1342,-96 1342,-84 1342,-84 1342,-78 1348,-72 1354,-72 1354,-72 1506,-72 1506,-72 1512,-72 1518,-78 1518,-84 1518,-84 1518,-96 1518,-96 1518,-102 1512,-108 1506,-108"/>
<text text-anchor="middle" x="1430" y="-87.5" font-family="sans" font-size="10.00">qiime2_taxonomic_krona_export</text>
</g>
<!-- 18&#45;&gt;19 -->
<g id="edge47" class="edge">
<title>18&#45;&gt;19</title>
<path fill="none" stroke="grey" stroke-width="2" d="M1401.39,-143.7C1405.76,-135.64 1411.06,-125.89 1415.9,-116.98"/>
<polygon fill="grey" stroke="grey" stroke-width="2" points="1419.02,-118.56 1420.71,-108.1 1412.87,-115.22 1419.02,-118.56"/>
</g>
<!-- 19&#45;&gt;0 -->
<g id="edge19" class="edge">
<title>19&#45;&gt;0</title>
<path fill="none" stroke="grey" stroke-width="2" d="M1458.38,-71.88C1473.88,-62.52 1493.25,-50.83 1509.83,-40.83"/>
<polygon fill="grey" stroke="grey" stroke-width="2" points="1511.96,-43.63 1518.71,-35.47 1508.34,-37.64 1511.96,-43.63"/>
</g>
<!-- 20&#45;&gt;0 -->
<g id="edge20" class="edge">
<title>20&#45;&gt;0</title>
<path fill="none" stroke="grey" stroke-width="2" d="M1824.13,-143.78C1829.92,-124.1 1835.51,-92.03 1819,-72 1789.55,-36.29 1651.07,-24.34 1583.4,-20.59"/>
<polygon fill="grey" stroke="grey" stroke-width="2" points="1583.34,-17.08 1573.18,-20.06 1582.98,-24.07 1583.34,-17.08"/>
</g>
<!-- 21 -->
<g id="node22" class="node">
<title>21</title>
<path fill="none" stroke="#d8c356" stroke-width="2" d="M2020.5,-108C2020.5,-108 1877.5,-108 1877.5,-108 1871.5,-108 1865.5,-102 1865.5,-96 1865.5,-96 1865.5,-84 1865.5,-84 1865.5,-78 1871.5,-72 1877.5,-72 1877.5,-72 2020.5,-72 2020.5,-72 2026.5,-72 2032.5,-78 2032.5,-84 2032.5,-84 2032.5,-96 2032.5,-96 2032.5,-102 2026.5,-108 2020.5,-108"/>
<text text-anchor="middle" x="1949" y="-87.5" font-family="sans" font-size="10.00">qiime2_phylotree_sepp_export</text>
</g>
<!-- 20&#45;&gt;21 -->
<g id="edge49" class="edge">
<title>20&#45;&gt;21</title>
<path fill="none" stroke="grey" stroke-width="2" d="M1850.05,-143.88C1867.49,-134.55 1889.27,-122.92 1907.94,-112.94"/>
<polygon fill="grey" stroke="grey" stroke-width="2" points="1909.66,-115.99 1916.83,-108.19 1906.36,-109.82 1909.66,-115.99"/>
</g>
<!-- 21&#45;&gt;0 -->
<g id="edge21" class="edge">
<title>21&#45;&gt;0</title>
<path fill="none" stroke="grey" stroke-width="2" d="M1865.4,-74.34C1860.87,-73.55 1856.38,-72.76 1852,-72 1754.99,-55.1 1640.66,-35.34 1583.09,-25.4"/>
<polygon fill="grey" stroke="grey" stroke-width="2" points="1583.47,-21.91 1573.02,-23.66 1582.28,-28.81 1583.47,-21.91"/>
</g>
<!-- 22&#45;&gt;0 -->
<g id="edge22" class="edge">
<title>22&#45;&gt;0</title>
<path fill="none" stroke="grey" stroke-width="2" d="M2013.53,-222.47C2038.32,-214.95 2064.12,-202.07 2079,-180 2096.24,-154.43 2063.83,-76.08 2059,-72 2022.76,-41.39 1694.99,-25.14 1583.18,-20.45"/>
<polygon fill="grey" stroke="grey" stroke-width="2" points="1583.18,-16.95 1573.05,-20.03 1582.89,-23.94 1583.18,-16.95"/>
</g>
<!-- 23 -->
<g id="node24" class="node">
<title>23</title>
<path fill="none" stroke="#56d863" stroke-width="2" d="M2058,-180C2058,-180 1914,-180 1914,-180 1908,-180 1902,-174 1902,-168 1902,-168 1902,-156 1902,-156 1902,-150 1908,-144 1914,-144 1914,-144 2058,-144 2058,-144 2064,-144 2070,-150 2070,-156 2070,-156 2070,-168 2070,-168 2070,-174 2064,-180 2058,-180"/>
<text text-anchor="middle" x="1986" y="-159.5" font-family="sans" font-size="10.00">qiime2_phylotree_align_export</text>
</g>
<!-- 22&#45;&gt;23 -->
<g id="edge51" class="edge">
<title>22&#45;&gt;23</title>
<path fill="none" stroke="grey" stroke-width="2" d="M1957.39,-215.7C1961.76,-207.64 1967.06,-197.89 1971.9,-188.98"/>
<polygon fill="grey" stroke="grey" stroke-width="2" points="1975.02,-190.56 1976.71,-180.1 1968.87,-187.22 1975.02,-190.56"/>
</g>
<!-- 22&#45;&gt;24 -->
<g id="edge54" class="edge">
<title>22&#45;&gt;24</title>
<path fill="none" stroke="grey" stroke-width="2" d="M1882.38,-218.33C1835.58,-207.86 1772.18,-193.68 1721.28,-182.3"/>
<polygon fill="grey" stroke="grey" stroke-width="2" points="1721.8,-178.83 1711.28,-180.06 1720.27,-185.66 1721.8,-178.83"/>
</g>
<!-- 23&#45;&gt;0 -->
<g id="edge23" class="edge">
<title>23&#45;&gt;0</title>
<path fill="none" stroke="grey" stroke-width="2" d="M2009.5,-143.71C2032.39,-124.82 2061.03,-94.29 2041,-72 2010.5,-38.05 1693.37,-24.04 1583.34,-20.18"/>
<polygon fill="grey" stroke="grey" stroke-width="2" points="1583.17,-16.67 1573.06,-19.83 1582.93,-23.67 1583.17,-16.67"/>
</g>
<!-- 24&#45;&gt;0 -->
<g id="edge24" class="edge">
<title>24&#45;&gt;0</title>
<path fill="none" stroke="grey" stroke-width="2" d="M1603.25,-143.94C1589.49,-134.99 1574.41,-122.79 1565,-108 1553.23,-89.5 1548.64,-64.91 1546.9,-46.26"/>
<polygon fill="grey" stroke="grey" stroke-width="2" points="1550.38,-45.79 1546.17,-36.06 1543.39,-46.28 1550.38,-45.79"/>
</g>
<!-- 25 -->
<g id="node26" class="node">
<title>25</title>
<path fill="none" stroke="#56c1d8" stroke-width="2" d="M1798,-108C1798,-108 1586,-108 1586,-108 1580,-108 1574,-102 1574,-96 1574,-96 1574,-84 1574,-84 1574,-78 1580,-72 1586,-72 1586,-72 1798,-72 1798,-72 1804,-72 1810,-78 1810,-84 1810,-84 1810,-96 1810,-96 1810,-102 1804,-108 1798,-108"/>
<text text-anchor="middle" x="1692" y="-87.5" font-family="sans" font-size="10.00">qiime2_phylotree_align_visualization_export</text>
</g>
<!-- 24&#45;&gt;25 -->
<g id="edge55" class="edge">
<title>24&#45;&gt;25</title>
<path fill="none" stroke="grey" stroke-width="2" d="M1649.09,-143.7C1655.92,-135.3 1664.26,-125.07 1671.76,-115.86"/>
<polygon fill="grey" stroke="grey" stroke-width="2" points="1674.47,-118.07 1678.07,-108.1 1669.04,-113.65 1674.47,-118.07"/>
</g>
<!-- 25&#45;&gt;0 -->
<g id="edge25" class="edge">
<title>25&#45;&gt;0</title>
<path fill="none" stroke="grey" stroke-width="2" d="M1656.28,-71.88C1633.83,-61.11 1604.94,-47.26 1582.36,-36.43"/>
<polygon fill="grey" stroke="grey" stroke-width="2" points="1583.64,-33.16 1573.11,-32 1580.61,-39.48 1583.64,-33.16"/>
</g>
<!-- 26&#45;&gt;0 -->
<g id="edge26" class="edge">
<title>26&#45;&gt;0</title>
<path fill="none" stroke="grey" stroke-width="2" d="M2382.04,-147.49C2403.65,-139.68 2425.13,-127.37 2438,-108 2446.85,-94.67 2448.97,-83.64 2438,-72 2408.23,-40.41 1748.59,-23.54 1583.3,-19.8"/>
<polygon fill="grey" stroke="grey" stroke-width="2" points="1583.21,-16.3 1573.13,-19.58 1583.05,-23.3 1583.21,-16.3"/>
</g>
<!-- 27 -->
<g id="node28" class="node">
<title>27</title>
<path fill="none" stroke="#d8ac56" stroke-width="2" d="M2417.5,-108C2417.5,-108 2214.5,-108 2214.5,-108 2208.5,-108 2202.5,-102 2202.5,-96 2202.5,-96 2202.5,-84 2202.5,-84 2202.5,-78 2208.5,-72 2214.5,-72 2214.5,-72 2417.5,-72 2417.5,-72 2423.5,-72 2429.5,-78 2429.5,-84 2429.5,-84 2429.5,-96 2429.5,-96 2429.5,-102 2423.5,-108 2417.5,-108"/>
<text text-anchor="middle" x="2316" y="-87.5" font-family="sans" font-size="10.00">qiime2_function_picrust2_add_descriptions</text>
</g>
<!-- 26&#45;&gt;27 -->
<g id="edge57" class="edge">
<title>26&#45;&gt;27</title>
<path fill="none" stroke="grey" stroke-width="2" d="M2312.99,-143.7C2313.43,-135.98 2313.96,-126.71 2314.45,-118.11"/>
<polygon fill="grey" stroke="grey" stroke-width="2" points="2317.95,-118.29 2315.02,-108.1 2310.96,-117.89 2317.95,-118.29"/>
</g>
<!-- 27&#45;&gt;0 -->
<g id="edge27" class="edge">
<title>27&#45;&gt;0</title>
<path fill="none" stroke="grey" stroke-width="2" d="M2202.28,-73.6C2197.45,-73.04 2192.68,-72.5 2188,-72 1958.68,-47.32 1682.18,-28.01 1583.35,-21.43"/>
<polygon fill="grey" stroke="grey" stroke-width="2" points="1583.48,-17.93 1573.27,-20.76 1583.01,-24.92 1583.48,-17.93"/>
</g>
</g>
</svg>
